<svg viewBox="0 0 123 111" fill="none" xmlns="http://www.w3.org/2000/svg">
<path d="M3.98226 0.000193005C2.94023 -0.0101297 1.93647 0.393993 1.1903 1.12427C0.444132 1.85454 0.0162001 2.85161 0 3.89762C0 4.14073 0.0192194 4.36069 0.0615021 4.58064L16.7785 106.52C16.9862 107.768 17.6267 108.902 18.5869 109.722C19.547 110.542 20.765 110.994 22.0254 111H102.247C104.208 111.019 105.872 109.614 106.191 107.685L122.947 4.62309C123.032 4.11203 123.015 3.58913 122.898 3.08456C122.78 2.57999 122.565 2.10374 122.263 1.68328C121.961 1.26283 121.58 0.906492 121.14 0.634837C120.701 0.363181 120.212 0.181584 119.702 0.100523C119.478 0.0618668 119.25 0.0412211 119.022 0.0387814L3.98226 0.000193005ZM74.4137 73.6578H48.8096L41.8829 37.3191H80.6216L74.4137 73.6578Z" fill="currentColor"/>
</svg>
