<svg viewBox="0 0 110 108" fill="none" xmlns="http://www.w3.org/2000/svg">
<path fill-rule="evenodd" clip-rule="evenodd" d="M55 0C24.6125 0 0 24.7762 0 55.3659C0 79.8653 15.7438 100.558 37.6063 107.894C40.3563 108.379 41.3875 106.718 41.3875 105.264C41.3875 103.949 41.3188 99.5893 41.3188 94.9525C27.5 97.5131 23.925 91.5613 22.825 88.447C22.2063 86.8552 19.525 81.9415 17.1875 80.6265C15.2625 79.5884 12.5125 77.0278 17.1188 76.9586C21.45 76.8893 24.5438 80.9726 25.575 82.6336C30.525 91.0076 38.4313 88.6546 41.5938 87.2012C42.075 83.6025 43.5188 81.1802 45.1 79.7961C32.8625 78.4119 20.075 73.6366 20.075 52.4592C20.075 46.4381 22.2063 41.4552 25.7125 37.5796C25.1625 36.1954 23.2375 30.5204 26.2625 22.9076C26.2625 22.9076 30.8687 21.4543 41.3875 28.5826C45.7875 27.3369 50.4625 26.714 55.1375 26.714C59.8125 26.714 64.4875 27.3369 68.8875 28.5826C79.4063 21.3851 84.0125 22.9076 84.0125 22.9076C87.0375 30.5204 85.1125 36.1954 84.5625 37.5796C88.0688 41.4552 90.2 46.3689 90.2 52.4592C90.2 73.7058 77.3438 78.4119 65.1063 79.7961C67.1 81.5262 68.8188 84.8482 68.8188 90.0387C68.8188 97.4439 68.75 103.396 68.75 105.264C68.75 106.718 69.7813 108.448 72.5313 107.894C83.4496 104.183 92.9371 97.1195 99.6585 87.6966C106.38 78.2737 109.997 66.9663 110 55.3659C110 24.7762 85.3875 0 55 0Z" fill="currentColor"/>
</svg>
