<svg viewBox="0 0 32 32" fill="none" xmlns="http://www.w3.org/2000/svg">
<path d="M16.0068 31.0153H15.3618C11.5891 30.7993 8.0312 29.1894 5.37862 26.498C2.72604 23.8066 1.16795 20.2257 1.00676 16.4503C0.930328 13.9054 1.50295 11.3829 2.67068 9.12037C3.83842 6.85788 5.56284 4.92985 7.68154 3.51789C9.80023 2.10593 12.2435 1.2565 14.7811 1.04961C17.3188 0.842718 19.8673 1.28517 22.1868 2.33531C22.4559 2.46199 22.6968 2.64146 22.8952 2.86306C23.0936 3.08466 23.2455 3.34387 23.3418 3.62531C23.4366 3.91026 23.4722 4.21158 23.4464 4.51079C23.4206 4.80999 23.3339 5.10078 23.1918 5.36531L21.2568 8.9353C21.0009 9.40834 20.5777 9.76889 20.07 9.94644C19.5623 10.124 19.0067 10.1057 18.5118 9.8953C17.2642 9.40504 15.899 9.2973 14.59 9.58581C13.281 9.87432 12.0876 10.546 11.1618 11.5153C10.5418 12.1852 10.0671 12.9761 9.76769 13.8383C9.46824 14.7005 9.35046 15.6154 9.42176 16.5253C9.51115 17.4047 9.77789 18.2569 10.2059 19.0303C10.6338 19.8038 11.2142 20.4824 11.9118 21.0253C12.626 21.6157 13.4538 22.0534 14.3439 22.3114C15.2339 22.5694 16.1675 22.6422 17.0868 22.5253C17.8695 22.4202 18.6227 22.1572 19.3008 21.7524C19.9789 21.3476 20.5678 20.8094 21.0318 20.1703H16.6818C16.1075 20.1703 15.5565 19.9432 15.1491 19.5386C14.7416 19.1339 14.5107 18.5845 14.5068 18.0103V13.9903C14.5068 13.4135 14.7359 12.8602 15.1438 12.4523C15.5517 12.0445 16.1049 11.8153 16.6818 11.8153H28.8318C29.4048 11.8192 29.9535 12.0475 30.3602 12.4513C30.7668 12.8552 30.9989 13.4023 31.0068 13.9753V16.7953C30.8067 20.6368 29.1385 24.2547 26.3468 26.9012C23.5552 29.5477 19.8535 31.0205 16.0068 31.0153ZM16.0068 4.01531C14.4001 4.01458 12.8097 4.33649 11.3299 4.96193C9.84998 5.58737 8.51076 6.50362 7.39162 7.65633C6.27248 8.80905 5.39621 10.1748 4.81477 11.6725C4.23333 13.1702 3.95856 14.7694 4.00676 16.3753C4.13577 19.3929 5.38139 22.255 7.50183 24.4059C9.62227 26.5569 12.4663 27.8432 15.4818 28.0153C18.6478 28.1582 21.7418 27.0428 24.0884 24.9126C26.435 22.7824 27.8436 19.8104 28.0068 16.6453V14.8153H17.5068V17.1853H25.4718L24.8568 19.1353C24.3714 20.7905 23.4205 22.2714 22.1175 23.4016C20.8144 24.5318 19.214 25.2638 17.5068 25.5103C16.1867 25.7018 14.8415 25.6238 13.5525 25.2809C12.2634 24.938 11.0572 24.3374 10.0068 23.5153C8.97173 22.7033 8.11672 21.6851 7.49595 20.5253C6.87518 19.3655 6.5022 18.0893 6.40066 16.7777C6.29911 15.4661 6.47123 14.1477 6.90608 12.9061C7.34093 11.6646 8.02904 10.5269 8.92676 9.5653C10.1823 8.21209 11.7951 7.24183 13.5789 6.7667C15.3627 6.29156 17.2445 6.33095 19.0068 6.8803L20.1618 4.73531C18.8309 4.24882 17.4237 4.00496 16.0068 4.01531Z" fill="currentColor" stroke="none"/>
</svg>
