<svg viewBox="0 0 22 17" fill="none" xmlns="http://www.w3.org/2000/svg">
<path d="M22 1.41683V15.5833C22 16.3873 21.4053 17 20.625 17H19.25V4.14318L11 10.2489L2.75 4.14318V17H1.375C0.594688 17 0 16.3873 0 15.5833V1.41683C0 1.0145 0.147125 0.660338 0.393937 0.409591C0.522481 0.277082 0.675572 0.172555 0.844108 0.102222C1.01264 0.0318889 1.19319 -0.00281336 1.375 0.000178197H1.83356L11 6.84756L20.1664 0.000178197H20.625C21.0155 0.000178197 21.3592 0.15176 21.6061 0.409591C21.8529 0.660338 22 1.0145 22 1.41683Z" fill="currentColor"/>
</svg>
