<svg viewBox="0 0 109 82" fill="none" xmlns="http://www.w3.org/2000/svg">
<path d="M91.1721 2.71158L84.1986 8.14602L54.5068 30.1555L24.8149 7.92864L17.8414 2.4942C16.1986 1.13856 14.1932 0.293475 12.0735 0.0636527C9.95391 -0.16617 7.81327 0.229369 5.91681 1.20126C4.02035 2.17316 2.45141 3.6787 1.40437 5.53137C0.357327 7.38404 -0.121802 9.50241 0.026338 11.6241V74.6092C0.026338 76.5693 0.806962 78.4492 2.19648 79.8353C3.586 81.2213 5.4706 82 7.43568 82H24.8149V40.0462L54.5068 62.273L84.1986 40.0462V82H101.578C103.543 82 105.428 81.2213 106.817 79.8353C108.207 78.4492 108.987 76.5693 108.987 74.6092V11.6241C109.089 9.52072 108.577 7.43304 107.512 5.61478C106.447 3.79652 104.876 2.32599 102.989 1.38194C101.102 0.437893 98.9803 0.0609859 96.8825 0.297034C94.7848 0.533082 92.8009 1.37192 91.1721 2.71158V2.71158Z" fill="currentColor"/>
</svg>
