<svg viewBox="0 0 51 51" fill="none" xmlns="http://www.w3.org/2000/svg">
<path d="M31.1019 2.91168e-06C31.3418 -0.000425526 31.5794 0.0464318 31.8012 0.137896C32.023 0.229361 32.2245 0.363638 32.3944 0.533053L50.4669 18.6056C50.8092 18.948 51.0014 19.4122 51.0014 19.8963C51.0014 20.3803 50.8092 20.8446 50.4669 21.1869C48.7145 22.9394 46.553 23.3337 44.9795 23.3337C44.3332 23.3337 43.7564 23.268 43.3 23.1913L31.8577 34.6336C32.1589 35.8473 32.3543 37.0847 32.4418 38.3321C32.6098 40.8951 32.325 44.4914 29.8131 47.0033C29.4708 47.3455 29.0065 47.5378 28.5225 47.5378C28.0384 47.5378 27.5742 47.3455 27.2318 47.0033L16.9031 36.6782L5.28551 48.2958C4.57356 49.0077 0.83491 51.589 0.12296 50.877C-0.58899 50.1651 1.99228 46.4228 2.70423 45.7145L14.3218 34.0969L3.9967 23.7682C3.65447 23.4258 3.46221 22.9616 3.46221 22.4775C3.46221 21.9935 3.65447 21.5292 3.9967 21.1869C6.5086 18.675 10.1049 18.3866 12.6679 18.5582C13.9153 18.6456 15.1528 18.841 16.3664 19.1423L27.8087 7.70367C27.7132 7.14768 27.6643 6.58467 27.6626 6.02054C27.6626 4.4506 28.057 2.2892 29.8131 0.533053C30.1552 0.191795 30.6187 0.000105575 31.1019 2.91168e-06ZM31.5473 7.71097V7.70367V7.71097ZM31.5473 7.70367V7.71097C31.6528 8.03215 31.667 8.37629 31.5883 8.70506C31.5097 9.03382 31.3413 9.3343 31.1019 9.57299L18.1955 22.4757C17.9557 22.7145 17.6543 22.8819 17.3248 22.9593C16.9954 23.0366 16.6509 23.0209 16.3299 22.9138H16.3226L16.2714 22.8992C15.9241 22.7952 15.5734 22.7026 15.2199 22.6218C14.3015 22.4075 13.3676 22.2659 12.4269 22.1982C10.8862 22.096 9.37466 22.2274 8.13696 22.7459L28.2541 42.8594C28.7689 41.618 28.9003 40.1102 28.7981 38.5694C28.7051 37.265 28.47 35.9747 28.0971 34.7213L28.0825 34.6738V34.6701C27.9747 34.3486 27.9586 34.0034 28.036 33.6732C28.1134 33.3431 28.2812 33.041 28.5206 32.8008L41.4307 19.8944C41.6793 19.6443 41.995 19.4716 42.3397 19.3971C42.6844 19.3225 43.0433 19.3495 43.373 19.4746L43.7235 19.5549C44.0411 19.617 44.4829 19.679 44.9795 19.679C45.3957 19.679 45.8192 19.6389 46.2318 19.533L31.4634 4.76824C31.3575 5.18081 31.3173 5.60798 31.3173 6.02054C31.3191 6.58785 31.3952 7.15248 31.5437 7.70002L31.5473 7.70367Z" fill="currentColor"/>
</svg>
