<svg viewBox="0 0 119 79" fill="none" xmlns="http://www.w3.org/2000/svg">
<path d="M115.962 12.3951C115.292 10.003 113.986 7.83739 112.183 6.12837C110.329 4.36679 108.056 3.1067 105.58 2.46702C96.3134 0.0244688 59.1867 0.0244693 59.1867 0.0244693C43.709 -0.151628 28.2351 0.622891 12.8523 2.34365C10.3762 3.03059 8.10817 4.31884 6.25004 6.09383C4.4243 7.85049 3.10187 10.0167 2.41105 12.3902C0.751565 21.3301 -0.0547269 30.4075 0.00304545 39.5C-0.0561678 48.5843 0.748145 57.6587 2.41105 66.6098C3.08707 68.9734 4.40456 71.1297 6.23524 72.8716C8.06592 74.6134 10.3456 75.8717 12.8523 76.5379C22.2426 78.9755 59.1867 78.9755 59.1867 78.9755C74.6841 79.1518 90.1777 78.3773 105.58 76.6563C108.056 76.0166 110.329 74.7565 112.183 72.9949C114.008 71.2531 115.306 69.0869 115.957 66.7282C117.66 57.7917 118.488 48.7106 118.43 39.6135C118.558 30.4779 117.731 21.3539 115.962 12.3902V12.3951ZM47.3835 56.3955V22.6094L78.2731 39.5049L47.3835 56.3955Z" fill="currentColor"/>
</svg>
